# xmcd
#
# Track frame offsets:
#	150
#	36350
#	55923
#	114855
#	182035
#	205190
#	234948
#	249589
#
# Disc length: 3895 seconds
#
# Revision: 1
# Processed by: cddbd v1.5.2PL0 Copyright (c) Steve Scherf et al.
# Submitted via: audiograbber 1.83.01
#
DISCID=640f3508
DTITLE=Grateful Dead - 73-03-22 Utica Memorial Auditorium, Utica NY
DYEAR=1900
DGENRE=
TTITLE0=Row Jimmy
TTITLE1=El Paso
TTITLE2=China Cat Sunflower > I Know You Rider
TTITLE3=Playing In The Band
TTITLE4=Big River
TTITLE5=Wave That Flag
TTITLE6=Me and My Uncle
TTITLE7=Here Comes Sunshine
EXTD=
EXTT0=
EXTT1=
EXTT2=
EXTT3=
EXTT4=
EXTT5=
EXTT6=
EXTT7=
PLAYORDER=
